<svg width="221" height="252" viewBox="0 0 221 252" fill="none" xmlns="http://www.w3.org/2000/svg">
<g filter="url(#filter0_i_1_39)">
<path d="M64 64C75.625 87 110.5 110 110.5 110C110.5 110 145.375 87 157 64" stroke="url(#paint0_linear_1_39)" stroke-width="127" stroke-linecap="round"/>
</g>
<mask id="mask0_1_39" style="mask-type:alpha" maskUnits="userSpaceOnUse" x="0" y="0" width="221" height="187">
<path d="M64 64C75.625 87 110.5 110 110.5 110C110.5 110 145.375 87 157 64" stroke="url(#paint1_linear_1_39)" stroke-width="127" stroke-linecap="round"/>
</mask>
<g mask="url(#mask0_1_39)">
<g filter="url(#filter1_d_1_39)">
<path d="M2.5 93.5H80L89 75L102.5 113.5L125 54L140 93.5H220" stroke="white" stroke-width="10"/>
</g>
</g>
<g filter="url(#filter2_d_1_39)">
<path d="M8.29688 221V197.727H18.3423C20.0696 197.727 21.581 198.068 22.8764 198.75C24.1719 199.432 25.1795 200.39 25.8991 201.625C26.6188 202.86 26.9787 204.303 26.9787 205.955C26.9787 207.621 26.6075 209.064 25.8651 210.284C25.1302 211.504 24.0961 212.443 22.7628 213.102C21.437 213.761 19.8878 214.091 18.1151 214.091H12.1151V209.182H16.8423C17.5848 209.182 18.2173 209.053 18.7401 208.795C19.2704 208.53 19.6757 208.155 19.956 207.67C20.2438 207.186 20.3878 206.614 20.3878 205.955C20.3878 205.288 20.2438 204.72 19.956 204.25C19.6757 203.773 19.2704 203.409 18.7401 203.159C18.2173 202.902 17.5848 202.773 16.8423 202.773H14.6151V221H8.29688ZM32.4361 221H25.6179L33.2997 197.727H41.9361L49.6179 221H42.7997L37.7088 204.136H37.527L32.4361 221ZM31.1634 211.818H43.9815V216.545H31.1634V211.818ZM72.4929 206.455H66.0838C66.0384 205.924 65.9171 205.443 65.7202 205.011C65.5308 204.58 65.2656 204.208 64.9247 203.898C64.5914 203.58 64.1861 203.337 63.7088 203.17C63.2315 202.996 62.6899 202.909 62.0838 202.909C61.0232 202.909 60.1255 203.167 59.3906 203.682C58.6634 204.197 58.1103 204.936 57.7315 205.898C57.3603 206.86 57.1747 208.015 57.1747 209.364C57.1747 210.788 57.3641 211.981 57.7429 212.943C58.1293 213.898 58.6861 214.617 59.4134 215.102C60.1406 215.58 61.0156 215.818 62.0384 215.818C62.6217 215.818 63.1444 215.746 63.6065 215.602C64.0687 215.451 64.4702 215.235 64.8111 214.955C65.152 214.674 65.4285 214.337 65.6406 213.943C65.8603 213.542 66.008 213.091 66.0838 212.591L72.4929 212.636C72.4171 213.621 72.1406 214.625 71.6634 215.648C71.1861 216.663 70.508 217.602 69.6293 218.466C68.758 219.322 67.6785 220.011 66.3906 220.534C65.1027 221.057 63.6065 221.318 61.902 221.318C59.7656 221.318 57.849 220.86 56.152 219.943C54.4626 219.027 53.1255 217.678 52.1406 215.898C51.1634 214.117 50.6747 211.939 50.6747 209.364C50.6747 206.773 51.1747 204.591 52.1747 202.818C53.1747 201.038 54.5232 199.693 56.2202 198.784C57.9171 197.867 59.8111 197.409 61.902 197.409C63.3717 197.409 64.724 197.61 65.9588 198.011C67.1937 198.413 68.277 199 69.2088 199.773C70.1406 200.538 70.8906 201.481 71.4588 202.602C72.027 203.723 72.3717 205.008 72.4929 206.455ZM75.3594 221V197.727H92.1321V202.818H81.6776V206.818H91.2685V211.909H81.6776V215.909H92.0866V221H75.3594ZM95.2656 197.727H103.129L108.538 210.909H108.811L114.22 197.727H122.084V221H115.902V207.545H115.72L110.538 220.818H106.811L101.629 207.455H101.447V221H95.2656V197.727ZM131.124 221H124.305L131.987 197.727H140.624L148.305 221H141.487L136.396 204.136H136.214L131.124 221ZM129.851 211.818H142.669V216.545H129.851V211.818ZM150.547 221V197.727H156.865V207.136H157.183L164.183 197.727H171.547L163.683 208.091L171.729 221H164.183L158.956 212.273L156.865 215V221H150.547ZM173.422 221V197.727H190.195V202.818H179.74V206.818H189.331V211.909H179.74V215.909H190.149V221H173.422ZM193.328 221V197.727H203.374C205.101 197.727 206.612 198.042 207.908 198.67C209.203 199.299 210.211 200.205 210.93 201.386C211.65 202.568 212.01 203.985 212.01 205.636C212.01 207.303 211.639 208.708 210.896 209.852C210.161 210.996 209.127 211.86 207.794 212.443C206.468 213.027 204.919 213.318 203.146 213.318H197.146V208.409H201.874C202.616 208.409 203.249 208.318 203.771 208.136C204.302 207.947 204.707 207.648 204.987 207.239C205.275 206.83 205.419 206.295 205.419 205.636C205.419 204.97 205.275 204.428 204.987 204.011C204.707 203.587 204.302 203.277 203.771 203.08C203.249 202.875 202.616 202.773 201.874 202.773H199.646V221H193.328ZM206.964 210.318L212.783 221H205.919L200.237 210.318H206.964Z" fill="white"/>
</g>
<path d="M74.5583 246.718H75.7623V241.482H74.5583V239.2H79.4443L81.1523 246.032L82.8463 239.2H87.7183V241.482H86.5283V246.718H87.7183V249H83.3363V246.718H84.2323V241.58H84.1483L82.1883 249H80.0743L78.1143 241.58H78.0443V246.718H78.9403V249H74.5583V246.718ZM93.685 248.594C93.4983 248.743 93.279 248.865 93.027 248.958C92.8496 249.014 92.6676 249.056 92.481 249.084C92.3036 249.121 92.117 249.14 91.921 249.14C91.2583 249.14 90.6563 248.981 90.115 248.664C89.583 248.347 89.1583 247.913 88.841 247.362C88.533 246.802 88.379 246.181 88.379 245.5C88.379 244.819 88.533 244.203 88.841 243.652C89.1583 243.092 89.583 242.653 90.115 242.336C90.6563 242.019 91.2583 241.86 91.921 241.86C92.313 241.86 92.663 241.916 92.971 242.028C93.223 242.121 93.4516 242.238 93.657 242.378V241.776H95.547V244.926H93.517V244.8C93.4703 244.623 93.377 244.464 93.237 244.324C93.097 244.184 92.929 244.077 92.733 244.002C92.5463 243.918 92.3456 243.876 92.131 243.876C91.8416 243.876 91.5756 243.946 91.333 244.086C91.0996 244.226 90.913 244.422 90.773 244.674C90.633 244.917 90.563 245.192 90.563 245.5C90.563 245.808 90.633 246.088 90.773 246.34C90.913 246.583 91.0996 246.774 91.333 246.914C91.5756 247.054 91.8416 247.124 92.131 247.124C92.355 247.124 92.565 247.082 92.761 246.998C92.957 246.914 93.125 246.802 93.265 246.662C93.405 246.513 93.4983 246.345 93.545 246.158V246.032H95.575V249.14H93.685V248.594ZM96.529 246.718H97.733V241.482H96.529V239.2H101.415L103.123 246.032L104.817 239.2H109.689V241.482H108.499V246.718H109.689V249H105.307V246.718H106.203V241.58H106.119L104.159 249H102.045L100.085 241.58H100.015V246.718H100.911V249H96.529V246.718ZM112.618 249.14C111.89 249.14 111.32 248.958 110.91 248.594C110.508 248.221 110.308 247.717 110.308 247.082C110.308 246.391 110.602 245.869 111.19 245.514C111.778 245.15 112.627 244.935 113.738 244.87C114.046 244.851 114.298 244.823 114.494 244.786C114.699 244.739 114.853 244.679 114.956 244.604C115.058 244.52 115.11 244.422 115.11 244.31C115.11 244.105 115.021 243.946 114.844 243.834C114.666 243.713 114.428 243.652 114.13 243.652C113.896 243.652 113.682 243.685 113.486 243.75C113.299 243.806 113.14 243.899 113.01 244.03C112.888 244.151 112.809 244.301 112.772 244.478V244.59H110.826V241.804H112.73V242.364C112.842 242.28 112.986 242.201 113.164 242.126C113.35 242.042 113.556 241.977 113.78 241.93C114.013 241.883 114.256 241.86 114.508 241.86C115.366 241.86 116.043 242.107 116.538 242.602C117.032 243.087 117.28 243.759 117.28 244.618V246.956H118.05V249H115.25V248.146C114.942 248.454 114.559 248.697 114.102 248.874C113.644 249.051 113.15 249.14 112.618 249.14ZM113.36 247.348C113.677 247.348 113.98 247.278 114.27 247.138C114.559 246.989 114.792 246.797 114.97 246.564C115.147 246.331 115.236 246.083 115.236 245.822V245.668C115.096 245.752 114.923 245.822 114.718 245.878C114.522 245.934 114.279 245.976 113.99 246.004C113.504 246.051 113.145 246.135 112.912 246.256C112.678 246.377 112.562 246.55 112.562 246.774C112.562 246.961 112.632 247.105 112.772 247.208C112.912 247.301 113.108 247.348 113.36 247.348ZM118.607 246.368H120.287V246.424C120.353 246.639 120.474 246.83 120.651 246.998C120.829 247.157 121.048 247.287 121.309 247.39C121.571 247.483 121.841 247.53 122.121 247.53C122.392 247.539 122.611 247.502 122.779 247.418C122.957 247.334 123.045 247.213 123.045 247.054C123.045 246.933 122.999 246.835 122.905 246.76C122.812 246.685 122.658 246.62 122.443 246.564C122.229 246.499 121.897 246.415 121.449 246.312C120.927 246.209 120.465 246.074 120.063 245.906C119.671 245.729 119.345 245.486 119.083 245.178C118.822 244.87 118.691 244.478 118.691 244.002C118.691 243.293 118.939 242.761 119.433 242.406C119.937 242.042 120.567 241.86 121.323 241.86C121.547 241.86 121.762 241.874 121.967 241.902C122.173 241.93 122.373 241.972 122.569 242.028C122.728 242.075 122.91 242.145 123.115 242.238V241.776H124.977V244.59H123.227V244.478C123.181 244.31 123.083 244.156 122.933 244.016C122.784 243.876 122.602 243.764 122.387 243.68C122.173 243.596 121.944 243.554 121.701 243.554C121.44 243.554 121.23 243.591 121.071 243.666C120.922 243.741 120.847 243.857 120.847 244.016C120.847 244.175 120.927 244.296 121.085 244.38C121.244 244.455 121.501 244.534 121.855 244.618C121.93 244.637 122.005 244.655 122.079 244.674C122.154 244.683 122.229 244.702 122.303 244.73C122.35 244.739 122.397 244.749 122.443 244.758C122.49 244.767 122.532 244.781 122.569 244.8C123.185 244.949 123.671 245.099 124.025 245.248C124.389 245.397 124.683 245.617 124.907 245.906C125.131 246.195 125.243 246.578 125.243 247.054C125.243 247.763 124.977 248.3 124.445 248.664C123.923 249.019 123.265 249.196 122.471 249.196C122.275 249.196 122.079 249.182 121.883 249.154C121.697 249.135 121.519 249.103 121.351 249.056C120.969 248.963 120.647 248.809 120.385 248.594V249.028H118.607V246.368ZM129.019 249.028C128.291 249.028 127.74 248.841 127.367 248.468C126.993 248.085 126.807 247.539 126.807 246.83V244.044H125.519V242H126.009C126.326 242 126.573 241.916 126.751 241.748C126.928 241.571 127.017 241.319 127.017 240.992V240.32H128.851V242H131.105V244.044H128.851V246.256C128.851 246.489 128.916 246.671 129.047 246.802C129.187 246.923 129.387 246.984 129.649 246.984C129.901 246.984 130.148 246.975 130.391 246.956C130.633 246.937 130.871 246.914 131.105 246.886V248.93C130.759 248.958 130.409 248.981 130.055 249C129.709 249.019 129.364 249.028 129.019 249.028ZM136.915 248.594C136.709 248.743 136.485 248.865 136.243 248.958C136.075 249.014 135.897 249.056 135.711 249.084C135.524 249.121 135.323 249.14 135.109 249.14C134.465 249.14 133.877 248.995 133.345 248.706C132.822 248.417 132.407 248.006 132.099 247.474C131.791 246.942 131.637 246.317 131.637 245.598C131.637 244.861 131.8 244.212 132.127 243.652C132.453 243.083 132.897 242.644 133.457 242.336C134.026 242.019 134.67 241.86 135.389 241.86C136.098 241.86 136.728 242.014 137.279 242.322C137.839 242.63 138.273 243.059 138.581 243.61C138.889 244.161 139.043 244.795 139.043 245.514C139.043 245.617 139.038 245.724 139.029 245.836C139.029 245.939 139.019 246.046 139.001 246.158H133.737C133.811 246.391 133.923 246.601 134.073 246.788C134.222 246.975 134.409 247.119 134.633 247.222C134.866 247.315 135.123 247.362 135.403 247.362C135.589 247.362 135.767 247.334 135.935 247.278C136.103 247.222 136.238 247.152 136.341 247.068C136.453 246.975 136.537 246.881 136.593 246.788V246.732H138.819V249.14H136.915V248.594ZM136.901 244.814C136.835 244.581 136.723 244.38 136.565 244.212C136.415 244.035 136.233 243.899 136.019 243.806C135.804 243.713 135.571 243.666 135.319 243.666C135.076 243.666 134.847 243.713 134.633 243.806C134.427 243.899 134.245 244.035 134.087 244.212C133.937 244.38 133.83 244.581 133.765 244.814H136.901ZM139.758 246.956H140.752V244.044H139.758V242H142.586V242.644C142.707 242.429 142.87 242.257 143.076 242.126C143.29 241.986 143.519 241.916 143.762 241.916C143.967 241.916 144.172 241.967 144.378 242.07C144.434 242.098 144.49 242.131 144.546 242.168C144.602 242.205 144.653 242.243 144.7 242.28V241.79H146.604V245.262H144.7V244.828C144.7 244.651 144.658 244.497 144.574 244.366C144.499 244.226 144.392 244.119 144.252 244.044C144.112 243.96 143.953 243.918 143.776 243.918C143.598 243.918 143.435 243.969 143.286 244.072C143.136 244.165 143.015 244.296 142.922 244.464C142.838 244.632 142.796 244.823 142.796 245.038V246.956H144.406V249H139.758V246.956Z" fill="white"/>
<path d="M45 244.5C44.7239 244.5 44.5 244.724 44.5 245C44.5 245.276 44.7239 245.5 45 245.5L45 244.5ZM65 244.5L45 244.5L45 245.5L65 245.5L65 244.5Z" fill="white"/>
<path d="M175 245.5C175.276 245.5 175.5 245.276 175.5 245C175.5 244.724 175.276 244.5 175 244.5L175 245.5ZM155 245.5L175 245.5L175 244.5L155 244.5L155 245.5Z" fill="white"/>
<defs>
<filter id="filter0_i_1_39" x="0.486328" y="0.486298" width="220.027" height="189.58" filterUnits="userSpaceOnUse" color-interpolation-filters="sRGB">
<feFlood flood-opacity="0" result="BackgroundImageFix"/>
<feBlend mode="normal" in="SourceGraphic" in2="BackgroundImageFix" result="shape"/>
<feColorMatrix in="SourceAlpha" type="matrix" values="0 0 0 0 0 0 0 0 0 0 0 0 0 0 0 0 0 0 127 0" result="hardAlpha"/>
<feOffset dy="4"/>
<feGaussianBlur stdDeviation="2"/>
<feComposite in2="hardAlpha" operator="arithmetic" k2="-1" k3="1"/>
<feColorMatrix type="matrix" values="0 0 0 0 0 0 0 0 0 0 0 0 0 0 0 0 0 0 0.25 0"/>
<feBlend mode="normal" in2="shape" result="effect1_innerShadow_1_39"/>
</filter>
<filter id="filter1_d_1_39" x="-1.5" y="39.89" width="225.5" height="96.2148" filterUnits="userSpaceOnUse" color-interpolation-filters="sRGB">
<feFlood flood-opacity="0" result="BackgroundImageFix"/>
<feColorMatrix in="SourceAlpha" type="matrix" values="0 0 0 0 0 0 0 0 0 0 0 0 0 0 0 0 0 0 127 0" result="hardAlpha"/>
<feOffset dy="4"/>
<feGaussianBlur stdDeviation="2"/>
<feComposite in2="hardAlpha" operator="out"/>
<feColorMatrix type="matrix" values="0 0 0 0 0 0 0 0 0 0 0 0 0 0 0 0 0 0 0.25 0"/>
<feBlend mode="normal" in2="BackgroundImageFix" result="effect1_dropShadow_1_39"/>
<feBlend mode="normal" in="SourceGraphic" in2="effect1_dropShadow_1_39" result="shape"/>
</filter>
<filter id="filter2_d_1_39" x="4.29688" y="195.409" width="212.486" height="31.9091" filterUnits="userSpaceOnUse" color-interpolation-filters="sRGB">
<feFlood flood-opacity="0" result="BackgroundImageFix"/>
<feColorMatrix in="SourceAlpha" type="matrix" values="0 0 0 0 0 0 0 0 0 0 0 0 0 0 0 0 0 0 127 0" result="hardAlpha"/>
<feOffset dy="2"/>
<feGaussianBlur stdDeviation="2"/>
<feComposite in2="hardAlpha" operator="out"/>
<feColorMatrix type="matrix" values="0 0 0 0 0 0 0 0 0 0 0 0 0 0 0 0 0 0 0.25 0"/>
<feBlend mode="normal" in2="BackgroundImageFix" result="effect1_dropShadow_1_39"/>
<feBlend mode="normal" in="SourceGraphic" in2="effect1_dropShadow_1_39" result="shape"/>
</filter>
<linearGradient id="paint0_linear_1_39" x1="5.875" y1="46.75" x2="191.375" y2="117.069" gradientUnits="userSpaceOnUse">
<stop stop-color="#B7E0DC"/>
<stop offset="1" stop-color="#F9CFA5"/>
</linearGradient>
<linearGradient id="paint1_linear_1_39" x1="5.875" y1="46.75" x2="191.375" y2="117.069" gradientUnits="userSpaceOnUse">
<stop stop-color="#B7E0DC"/>
<stop offset="1" stop-color="#F9CFA5"/>
</linearGradient>
</defs>
</svg>
